{
  "accessors": [
    {
      "bufferView": 2,
      "componentType": 5126,
      "count": 1780,
      "max": [1.0, 1.0, 1.0],
      "min": [-1.0, -1.0, -1.0],
      "type": "VEC3"
    },
    {
      "bufferView": 2,
      "byteOffset": 21360,
      "componentType": 5126,
      "count": 1780,
      "max": [1.0, 0.9914482235908508, 1.0],
      "min": [-1.0, -0.9914482235908508, -1.0],
      "type": "VEC3"
    },
    {
      "bufferView": 1,
      "componentType": 5126,
      "count": 1780,
      "max": [1.0, 1.0],
      "min": [0.0, 0.01574336178600788],
      "type": "VEC2"
    },
    {
      "bufferView": 0,
      "componentType": 5125,
      "count": 7668,
      "type": "SCALAR"
    },
    {
      "bufferView": 2,
      "byteOffset": 42720,
      "componentType": 5126,
      "count": 423,
      "max": [1.0, 0.17320217192173004, 1.0],
      "min": [-1.0, -0.49967074394226074, -1.0],
      "type": "VEC3"
    },
    {
      "bufferView": 2,
      "byteOffset": 47796,
      "componentType": 5126,
      "count": 423,
      "max": [1.0, 0.15506857633590698, 1.0],
      "min": [-1.0, -0.15506857633590698, -1.0],
      "type": "VEC3"
    },
    {
      "bufferView": 1,
      "byteOffset": 14240,
      "componentType": 5126,
      "count": 423,
      "max": [1.0, 0.8516309261322021],
      "min": [0.0, 0.7693692445755005],
      "type": "VEC2"
    },
    {
      "bufferView": 0,
      "byteOffset": 30672,
      "componentType": 5125,
      "count": 1920,
      "type": "SCALAR"
    },
    {
      "bufferView": 2,
      "byteOffset": 52872,
      "componentType": 5126,
      "count": 22304,
      "max": [1.0155357122421265, 0.472107470035553, 1.0119520425796509],
      "min": [-1.0132968425750732, 0.12956777215003967, -1.0150514841079712],
      "type": "VEC3"
    },
    {
      "bufferView": 2,
      "byteOffset": 320520,
      "componentType": 5126,
      "count": 22304,
      "max": [0.9999816417694092, 1.0, 0.9999991655349731],
      "min": [-0.9999810457229614, -1.0, -1.0],
      "type": "VEC3"
    },
    {
      "bufferView": 1,
      "byteOffset": 17624,
      "componentType": 5126,
      "count": 22304,
      "max": [1.0000001192092896, 1.0000001192092896],
      "min": [0.0, 0.02423527091741562],
      "type": "VEC2"
    },
    {
      "bufferView": 0,
      "byteOffset": 38352,
      "componentType": 5125,
      "count": 102336,
      "type": "SCALAR"
    },
    {
      "bufferView": 2,
      "byteOffset": 588168,
      "componentType": 5126,
      "count": 11540,
      "max": [5.8798136711120605, 1.391914963722229, 11.742158889770508],
      "min": [-6.0946197509765625, 0.02127203159034252, -0.7075715661048889],
      "type": "VEC3"
    },
    {
      "bufferView": 2,
      "byteOffset": 726648,
      "componentType": 5126,
      "count": 11540,
      "max": [0.9999611377716064, 1.0, 0.9999420642852783],
      "min": [-0.9999163150787354, -1.0, -0.9997504949569702],
      "type": "VEC3"
    },
    {
      "bufferView": 1,
      "byteOffset": 196056,
      "componentType": 5126,
      "count": 11540,
      "max": [0.0, 0.0],
      "min": [0.0, 0.0],
      "type": "VEC2"
    },
    {
      "bufferView": 0,
      "byteOffset": 447696,
      "componentType": 5125,
      "count": 69120,
      "type": "SCALAR"
    },
    {
      "bufferView": 2,
      "byteOffset": 865128,
      "componentType": 5126,
      "count": 291,
      "max": [0.9999991655349731, 1.2821950912475586, 0.9999992251396179],
      "min": [-0.9999992251396179, -0.919666051864624, -0.9999992251396179],
      "type": "VEC3"
    },
    {
      "bufferView": 2,
      "byteOffset": 868620,
      "componentType": 5126,
      "count": 291,
      "max": [0.9999960660934448, 0.9942061305046082, 0.9999960660934448],
      "min": [-0.9999960660934448, -0.6345780491828918, -0.9999960660934448],
      "type": "VEC3"
    },
    {
      "bufferView": 1,
      "byteOffset": 288376,
      "componentType": 5126,
      "count": 291,
      "max": [1.0, 1.0],
      "min": [0.0, 0.01000000536441803],
      "type": "VEC2"
    },
    {
      "bufferView": 0,
      "byteOffset": 724176,
      "componentType": 5125,
      "count": 840,
      "type": "SCALAR"
    },
    {
      "bufferView": 2,
      "byteOffset": 872112,
      "componentType": 5126,
      "count": 240,
      "max": [0.9999991655349731, 1.1618320941925049, 0.9999992251396179],
      "min": [-0.9999992251396179, -0.919666051864624, -0.9999992251396179],
      "type": "VEC3"
    },
    {
      "bufferView": 2,
      "byteOffset": 874992,
      "componentType": 5126,
      "count": 240,
      "max": [0.9999960660934448, 0.9942061305046082, 0.9999960660934448],
      "min": [-0.9999960660934448, -0.6295830607414246, -0.9999960660934448],
      "type": "VEC3"
    },
    {
      "bufferView": 1,
      "byteOffset": 290704,
      "componentType": 5126,
      "count": 240,
      "max": [0.875, 1.0],
      "min": [0.0, 0.011307167820632458],
      "type": "VEC2"
    },
    {
      "bufferView": 0,
      "byteOffset": 727536,
      "componentType": 5125,
      "count": 672,
      "type": "SCALAR"
    },
    {
      "bufferView": 2,
      "byteOffset": 877872,
      "componentType": 5126,
      "count": 559,
      "max": [1.000000238418579, 4.267740249633789, 1.0000003576278687],
      "min": [-0.9999998211860657, -0.804003894329071, -1.0],
      "type": "VEC3"
    },
    {
      "bufferView": 2,
      "byteOffset": 884580,
      "componentType": 5126,
      "count": 559,
      "max": [0.9999483823776245, 0.9949073195457458, 0.9999483823776245],
      "min": [-0.9999483823776245, -1.0, -0.9999483823776245],
      "type": "VEC3"
    },
    {
      "bufferView": 1,
      "byteOffset": 292624,
      "componentType": 5126,
      "count": 559,
      "max": [1.000000238418579, 1.0],
      "min": [0.0, 0.0],
      "type": "VEC2"
    },
    {
      "bufferView": 0,
      "byteOffset": 730224,
      "componentType": 5125,
      "count": 2880,
      "type": "SCALAR"
    }
  ],
  "asset": {
    "extras": {
      "author": "Artex_112 (https://sketchfab.com/Artex_112)",
      "license": "CC-BY-4.0 (http://creativecommons.org/licenses/by/4.0/)",
      "source": "https://sketchfab.com/3d-models/strawberry-cake-863b112d64fc4a01a9eaeccc1c0b3e6f",
      "title": "Strawberry Cake"
    },
    "generator": "Sketchfab-12.67.0",
    "version": "2.0"
  },
  "bufferViews": [
    {
      "buffer": 0,
      "byteLength": 741744,
      "name": "floatBufferViews",
      "target": 34963
    },
    {
      "buffer": 0,
      "byteLength": 297096,
      "byteOffset": 741744,
      "byteStride": 8,
      "name": "floatBufferViews",
      "target": 34962
    },
    {
      "buffer": 0,
      "byteLength": 891288,
      "byteOffset": 1038840,
      "byteStride": 12,
      "name": "floatBufferViews",
      "target": 34962
    }
  ],
  "buffers": [
    {
      "byteLength": 1930128,
      "uri": "cake.bin"
    }
  ],
  "extensionsUsed": ["KHR_materials_clearcoat"],
  "materials": [
    {
      "doubleSided": true,
      "name": "material_0",
      "pbrMetallicRoughness": {
        "metallicFactor": 0.0,
        "roughnessFactor": 0.6
      }
    },
    {
      "doubleSided": true,
      "name": "Material.001",
      "pbrMetallicRoughness": {
        "baseColorFactor": [0.958417, 0.608994, 0.608994, 1.0],
        "metallicFactor": 0.0,
        "roughnessFactor": 0.645455
      }
    },
    {
      "doubleSided": true,
      "name": "Material.005",
      "pbrMetallicRoughness": {
        "baseColorFactor": [0.851179, 0.685277, 0.789766, 1.0],
        "metallicFactor": 0.0,
        "roughnessFactor": 0.645455
      }
    },
    {
      "doubleSided": true,
      "name": "Material.004",
      "pbrMetallicRoughness": {
        "baseColorFactor": [0.822194, 0.626049, 0.770227, 1.0],
        "metallicFactor": 0.0,
        "roughnessFactor": 0.645455
      }
    },
    {
      "doubleSided": true,
      "name": "Material.006",
      "pbrMetallicRoughness": {
        "metallicFactor": 0.0,
        "roughnessFactor": 0.5
      }
    },
    {
      "doubleSided": true,
      "extensions": {
        "KHR_materials_clearcoat": {
          "clearcoatFactor": 1.0,
          "clearcoatRoughnessFactor": 0.04
        }
      },
      "name": "Material.007",
      "pbrMetallicRoughness": {
        "baseColorFactor": [1.0, 0.07496829999999988, 0.11104700000000002, 1.0],
        "metallicFactor": 0.0,
        "roughnessFactor": 0.5
      }
    },
    {
      "doubleSided": true,
      "emissiveFactor": [1.0, 1.0, 1.0],
      "name": "Material.008"
    }
  ],
  "meshes": [
    {
      "name": "Object_0",
      "primitives": [
        {
          "attributes": {
            "NORMAL": 1,
            "POSITION": 0,
            "TEXCOORD_0": 2
          },
          "indices": 3,
          "material": 1,
          "mode": 4
        }
      ]
    },
    {
      "name": "Object_1",
      "primitives": [
        {
          "attributes": {
            "NORMAL": 5,
            "POSITION": 4,
            "TEXCOORD_0": 6
          },
          "indices": 7,
          "material": 2,
          "mode": 4
        }
      ]
    },
    {
      "name": "Object_2",
      "primitives": [
        {
          "attributes": {
            "NORMAL": 9,
            "POSITION": 8,
            "TEXCOORD_0": 10
          },
          "indices": 11,
          "material": 3,
          "mode": 4
        }
      ]
    },
    {
      "name": "Object_3",
      "primitives": [
        {
          "attributes": {
            "NORMAL": 13,
            "POSITION": 12,
            "TEXCOORD_0": 14
          },
          "indices": 15,
          "material": 0,
          "mode": 4
        }
      ]
    },
    {
      "name": "Object_4",
      "primitives": [
        {
          "attributes": {
            "NORMAL": 17,
            "POSITION": 16,
            "TEXCOORD_0": 18
          },
          "indices": 19,
          "material": 4,
          "mode": 4
        }
      ]
    },
    {
      "name": "Object_5",
      "primitives": [
        {
          "attributes": {
            "NORMAL": 21,
            "POSITION": 20,
            "TEXCOORD_0": 22
          },
          "indices": 23,
          "material": 5,
          "mode": 4
        }
      ]
    },
    {
      "name": "Object_6",
      "primitives": [
        {
          "attributes": {
            "NORMAL": 25,
            "POSITION": 24,
            "TEXCOORD_0": 26
          },
          "indices": 27,
          "material": 6,
          "mode": 4
        }
      ]
    }
  ],
  "nodes": [
    {
      "children": [1],
      "matrix": [
        1.0, 0.0, 0.0, 0.0, 0.0, 3.828568672208042e-16, -1.0, 0.0, 0.0, 1.0,
        3.828568672208042e-16, 0.0, 0.0, 9.485204976107137e-33,
        -4.2717565595928875e-17, 1.0
      ],
      "name": "Sketchfab_model"
    },
    {
      "children": [2],
      "name": "root"
    },
    {
      "children": [3, 6, 8, 10, 13],
      "matrix": [
        1.0, 0.0, 0.0, 0.0, 0.0, 2.220446049250313e-16, 1.0, 0.0, 0.0, -1.0,
        2.220446049250313e-16, 0.0, 0.0, 0.0, 0.0, 1.0
      ],
      "name": "GLTF_SceneRootNode"
    },
    {
      "children": [4, 5],
      "matrix": [
        1.0, 0.0, 0.0, 0.0, 0.0, 0.46730971336364746, 0.0, 0.0, 0.0, 0.0, 1.0,
        0.0, 0.0, 0.0, 0.0, 1.0
      ],
      "name": "Cylinder_2"
    },
    {
      "mesh": 0,
      "name": "Object_4"
    },
    {
      "mesh": 1,
      "name": "Object_5"
    },
    {
      "children": [7],
      "name": "Cylinder.001_3"
    },
    {
      "mesh": 2,
      "name": "Object_7"
    },
    {
      "children": [9],
      "matrix": [
        0.1516669714789523, 0.0, -0.0021195267514564093, 0.0, 0.0,
        0.1516817808151245, 0.0, 0.0, 0.0021195267514564093, 0.0,
        0.1516669714789523, 0.0, 0.013648086227476597, 0.4457472264766693,
        -0.8326365947723389, 1.0
      ],
      "name": "Circle_4"
    },
    {
      "mesh": 3,
      "name": "Object_9"
    },
    {
      "children": [11, 12],
      "matrix": [
        0.032435279339551926, 0.0, 0.0, 0.0, 0.0, 0.23087583482265472, 0.0, 0.0,
        0.0, 0.0, 0.032435279339551926, 0.0, 0.0, 0.6602373719215393, 0.0, 1.0
      ],
      "name": "Cylinder.002_5"
    },
    {
      "mesh": 4,
      "name": "Object_11"
    },
    {
      "mesh": 5,
      "name": "Object_12"
    },
    {
      "children": [14],
      "matrix": [
        0.009700525552034378, 0.0, 0.0, 0.0, 0.0, 0.009700525552034378, 0.0,
        0.0, 0.0, 0.0, 0.009700525552034378, 0.0, -4.924294262309559e-5,
        0.9561248421669006, -0.002581980312243104, 1.0
      ],
      "name": "Sphere_6"
    },
    {
      "mesh": 6,
      "name": "Object_14"
    }
  ],
  "scene": 0,
  "scenes": [
    {
      "name": "Sketchfab_Scene",
      "nodes": [0]
    }
  ]
}
